<?xml version="1.0" encoding="utf-8"?>
<!-- Generator: Adobe Illustrator 18.0.0, SVG Export Plug-In . SVG Version: 6.00 Build 0)  -->
<!DOCTYPE svg PUBLIC "-//W3C//DTD SVG 1.1//EN" "http://www.w3.org/Graphics/SVG/1.1/DTD/svg11.dtd">
<svg version="1.1" id="Слой_1" xmlns="http://www.w3.org/2000/svg" xmlns:xlink="http://www.w3.org/1999/xlink" x="0px" y="0px"
	 viewBox="93 0 608 1024" enable-background="new 93 0 608 1024" xml:space="preserve">
<path fill="#000000"      d="
	M227.6,20.6l5.1-2.5l10.2-6.1l3-1l-2.5-2.8l1.2-3.5h3.8l5.1,6.5l7.6,3.4l5.6,4l0.5,6.1l7.6,1.5l11.2-3.1l9.1,1.5l5.1,2l4.1,3
	l12.7-1.5l4.6-0.5l2.5-4.1l6.6-1l6.1-0.8l5.5,0.7h3.6l-1.5,4.2h-4.6l1.5,3.3l5.6,1.9l3.6,3.5l11.2,4.5l4.1,5.1l3.6,6.6l10.2,3
	l6.5,5.1c0,0,6.2,3.6,10.3,6.1c4.1,2.5,7.6,7.1,9.1,9.6c1.5,2.5,10.2,6.1,11.7,7.1c1.5,1,16.2,0,17.8,0c1.5,0,18.8,2.5,20.3,3
	c1.5,0.5,12.7,6.1,12.7,6.1l11.2,10.7c0,0,4.1,5.1,7.1,8.6c3,3.6,4.1,11.7,4.1,11.7l2.5,8.6l6.6,5.6l2.5,9.1l-1,6.1l2,4.1l1.5,3.6
	l2.5,2l3-2.5l5.1-1c0,0,2,1,7.1,3s0,6.6,0,6.6l-4.6,7.1l-4.6,5.6c0,0-4.6,2-6.6,2c-2,0,3.6,3,3.6,3l3.6,0.5l4.1-5.6l5.1-3.6
	c0,0,4.1-6.6,4.1-8.6s5.1-0.5,5.1-0.5l4.6-0.5l8.6,4.6l4.1,0.5l3,3.6l11.7,3c0,0,4.1,1,7.6,7.1c3.6,6.1,3,8.6,3,8.6l6.1-0.5l5.1-2
	l6.1-1c0,0,4.1,3.3,5.6,3.3c1.5,0,5.5,2.4,5.5,2.4h5.1l6.1,2l2-1.7l6.7,0.8h7l7.6,4.2l12.7,9.4l10.2,7l6.6,4.5l7.1,4l5.6,3.5
	l8.1,5.1l4.8,9.6l2.8,7v10.2l-5.3,7.1l-2,8.9v6.3l-3.2,3l-4.3,2l-7.6,6.6l-9.4,10.2l-9.2,8.6v7.1l-5.7,3l-3.8-0.7v4.3l-4.2,5.1
	l1.7,10.2l0.6,10.2l2.4,7.1l-5,16.7l-2.7,13.2l-4.3,8.9v7.8l-2.1,10v6.2l-8.8,5.1l-5.9,7.6v6.3v3.4c0,0-3.3,4.6-4.8,5.1
	c-1.5,0.5-3.9,2.5-3.9,2.5l-3,3l-4.3,3.6l-3,3.4v3.7l-3.2,1.6h-5.8l-5.1-1.8c0,0-1.5-5.7-2-7.8c-0.5-2-4.1,0.9-4.1,0.9l-8.6,3
	l-8.6,4.6L551,474l-11.7,8.1l-11.9,9.1l-7.6,11.3v8.9l-2.1,10v9.9l-4.4,12.7l-9.1,10.2l-5,9.1l-3,8.1l-4.2,8.1l-5.4,7.6l-8.1,4.6
	c0,0,3.6-6.1,4.6-7.6c1-1.5,3-4.1,3-4.1l2.8-3l2.6-7.3v-2.9l-5.3,3.9H483l-5.1,10.7l-3,4.8l-2.5,10.1l-3,8.6l-5.1,5.6l-7.6,12.7
	l-4.1,4.6l-6.6,5.8l-10.2,2.3h-6.6c0,0-9.6-0.5-11.2-1.5c-1.5-1-3.6-1.1-5.1-1.6s-5.5-1-5.5-1h-3.6c0,0-6.6-1.7-7.1-3.7
	c-0.5-2-4.6,0.5-4.6,0.5l4.6,7l7.1,4l5.3,3.5l-0.7,5.5v6.2l2.5,2l3.8,1.2v7.9l-3.7,12.7l-6.4,8.1l-8.6,6.1l-12.9,4.6l-12.4,3
	l-22.9,2.5l-4.6,1.3v4.8l4.6,4.1l-2.5,5.1c0,0-2.4,4.6-0.9,6.1c1.5,1.5-0.2,3-0.2,3v3.1l-5.1,3l-7.2,3c0,0-8.1,1.5-10.1-0.5
	s-4.5-1-4.5-1l-6.1-1l-2.5,3l2,5.6l-0.5,11.2l3.6,2.5l3.6,3c1.5,1,4.1,1,4.1,1s0.2-2.5,1.3-4.6s4.8,2,4.8,2v5.6l-4.8,4.1
	c0,0-7.8-3.4-9.9-3.4c-1.1,0,0,7.4,0,7.4v1.6c0,0-2.5,3-4,5.1s-2.9,3.6-2.9,3.6s0.8,6.1,0.1,7.6c-0.8,1.5,0,5.6,0,5.6l-2.8,5.6
	l-3,4.6l-6.6,2l-5.1,2l-4.1,0c0,0-3,5.1-4.6,7.6c-1.5,2.5-2.5,8.6-2.5,8.6s1,6.1,1.5,8.1c0.5,2,2.5,4.6,2.5,4.6l5.6,4.6
	c0,0,4.1,0.5,5.6,0.5c1.5,0,3.6-0.5,5.1-0.5c1.5,0,4.1,4.1,4.1,4.1s-2,7.1-3,8.6c-1,1.5-0.5,4.1-0.5,4.1s-2.5,2.5-4.1,4.1
	c-1.5,1.5-3.6,4.6-5.1,6.1c-1.5,1.5-4.6,4.6-7.1,6.6s-2,5.6-3,7.1c-1,1.5-2,7.1-2.5,9.6s-2.5,5.1-2.5,5.1s-3,2.5-5.1,4.1
	c-2,1.5-4.6,3.6-4.6,3.6s-2.5,2.5-5.1,5.1c-2.5,2.5-2,3.6-2,3.6l-1,5.1l3,8.1l1,8.1l1.5,3l3,3l-2,5.6c0,0-3.6-0.5-4.6-2
	s-4.6,0.5-4.6,0.5l-2.5,3.6l-4.1,3l-4.1,2l-4.6,2.5l-1.5,4.1l-1,5.1l-1,6.6l-2,5.1l-5.1,0.5l-3.6-3.6l-4.6,2.5l4.6,5.6l7.4,2
	l4.8,3.1v-3.6l2.3-7.1l3.2,3l1.1,8.1l2.1-1l4.1,3.6l7.1,3.6l-2.5-4.1l-4.6-6.1l-3-2.8l1.9-6.2h3.7l2-5.1l-5.6,0.6l-4.6-0.6l-2.5-3.1
	l2-4.3l1.8-4.3h5.4c0,0,3.6-3.3,5.1-5.4c1.5-2,3.6-0.2,3.6-0.2l3.6,3.5l7.1,3.5l-3.6,5.1l3.6,6.6l10.7,10.1l9.6,11.2l10.9,6.1
	c0,0,4-0.6,5.1-0.6v3.2l-2.9,3l-3.5,2l-5.5-2l-4.5,1l-3,2l-2.5,4.1l-7.6,0.5l-5.1-1.5l-4.1-3l0.5,5.1l3.6,4.1l-3.6,2l-6.6-5.1
	l-4.1-2.5l-3.3,2.5l-6.5-2.8v-3.7l-2.7-5l-2.5,5.5h-2.7l-4.6-5.2l-1.5-5.5l-4.6,3.5l-5.1-5.6l-1-5.6l-6.1-3.1l-5.1-3.6
	c0,0-5.6-0.5-6.6-2c-1-1.5-4.1-5.6-4.1-5.6l-1.5-6.3l-4.5-6.2h-4.6c0,0,0-4.5,1.5-4c1.5,0.5,3,1.7,4.6,1.7s4.9,2.3,4.9,2.3h3.3
	l-2-5.9l-2.3-4.6h-4.3l-4.1-8l-0.5-5.4l4.1-4.6l0.1-4l-1.6-5.5l-0.6,1.5l-3.6,3.9h-4.5l-1.5-7.9l2.8-7.8h3.2v-4.7l-1.7-6.6l-4.4-6.8
	l-2.3-1.8h-4.2c0,0-1-11.1-2.6-15.2s1.6-5.4,0-8s5.7-9.7,5.7-9.7l3-6.1l6.6-3.6l3-3.6l0.5-3.6l-5.1-5.4l-5.1-2.4l-2.9,3h-3.1
	l1.5-4.4l2-6.8l3-5.4l2.8-2.3h4.3l0.5-5.6l0.5-4.9h2.6l-2.3-5.9l-1.3-3.5v-6l3.2-2.4h5l2.5,6l-2.5,8.7l-1,6l2,4l3-4.1l2.5-12.7
	l1.8-7.1l3.4-25v-5.9l2.1-6.7v-4.5l-1.4-3.6l-6.6-1l-0.4,3l-1.5,5.6l-2.5,6.6l0.5,4.6l-0.5,5.3l-1.3,4.9h-3.8l-2-4.9l-0.5-8.3l1-8.7
	l2.8-7.1l1.5-5.6v-8.1l1.7-6.6l1.6-7.6l3.4-8.6l-1.3-14.2v-8.1l-1.4-8.6l2.5-6.1l5.6-9.1l3.1-12.7l1-6.6l6.6-6.6c0,0,0.5-9.1,0-10.7
	c-0.5-1.5,4.6-14.7,4.6-14.7l2-25.4l-3-9.1l1.3-11.2l4-4.4v-8.2l-0.4-9.1l3.6-9.1c0,0,3.6-12.2,4.6-14.7c1-2.5,0.5-9.1,0.5-9.1
	l2.6-10.2l0.5-6.2l1-22.8l-1.5-7.6c0,0,1.3-6.6,1.3-8.1s2.5-11.4,2.5-11.4v-11l-2.1-11.1V408v-10.7l-7.7-6.6l-9.3-4.1l-6.5-6.1
	l-10.1-5.8l-14.6-9.8h-4.6l-7.6-5.4l-5.3-5.3l-7.6-4v-5.7l-2.1-7.9v-4.3l-3.9-8.1l-5-7.1l-8.1-11.2l-4.5-9.1l-4-11.7l-3.5-7.1
	l-4.1-10.7l-3.6-4.6l-8.6-14.7l-5.1-2.5l-6.4-4.6l-6.2-7.3v-9.5v-7.6l4-5.1l6-7.1l4.1-4.6l3.6-5.1l-3-3l-6.6-2l-3.6-6.6
	c0,0,0.5-6.6,0-11.2c-0.5-4.6,4.8,0,4.8,0l4.4-6.5v-6.3v-6l6.1-4.6l6.5-4.6l3.1-3.6c0,0,3.8-4.6,4.5-6.6c0.7-2-0.2-5.2-0.2-5.2v-5.3
	h8.4h3.1l-0.8-5.2l-2.3-10.6v-7.3l6.4-2.5l0.4-4.6l0.6-6.6V80l-1.4-7.6l-5.6-4.6l1.8-5.6l6.2-4v-7.4h2.8l7.1-2.2l6.6-8.2l4.6-6.2
	l2.5-10.4l6.1-4.8c0,0,6.1,0,7.1-2s3.6-1.5,5.6-3.6s5.1,0.5,5.1,0.5l2,1.5l4.1-2l3.6-4.6l4.6-0.8l4.5-3.5h3.2h4.2v3.7L223,12
	l0.9,4.6l0.6,9.1l-2,4.6l-3,4.4l3.1,5.8c0,0,4.1,2.1,6.1,3.1c2,1,2.8-2.4,2.8-2.4l2.9-3.3l-2.9-6l-2.3-3.9L227.6,20.6z M178.4,903.8
	v4.2l-1.8,4.1l1.2,4.1l1-3l4.9-3.2v-6.2l-3.7-2.8L178.4,903.8z M180.2,939.2l4,6.5h1.6v-4.2v-2.1h-2.1L180.2,939.2z M354.9,23.6v5.3
	h4.2l2.1-5.3v-2.1h-6.3V23.6z"/>
</svg>
